HIERARCHY
ROOT Hips
{
     OFFSET -4.28506 94.89290 -40.63720
     CHANNELS 6 Xposition Yposition Zposition Zrotation Xrotation Yrotation
     JOINT Spine
     {
          OFFSET -0.00000 11.89050 -0.00000
          CHANNELS 3 Zrotation Xrotation Yrotation
          JOINT Spine1
          {
               OFFSET -0.00000 25.65740 0.12766
               CHANNELS 3 Zrotation Xrotation Yrotation
               JOINT HEad
               {
                    OFFSET 0.00000 8.73416 0.01134
                    CHANNELS 3 Zrotation Xrotation Yrotation
                    End Site
                    {
                         OFFSET -0.29000 12.77420 2.51395
                    }
               }
               JOINT LeftShoulder1
               {
                    OFFSET 8.99000 -0.36225 -0.22000
                    CHANNELS 3 Zrotation Xrotation Yrotation
                    JOINT LeftArm
                    {
                         OFFSET 10.28270 -0.00338 0.32212
                         CHANNELS 3 Zrotation Xrotation Yrotation
                         JOINT LeftForeArm
                         {
                              OFFSET 32.76690 0.09914 -1.42434
                              CHANNELS 3 Zrotation Xrotation Yrotation
                              JOINT LeftHand
                              {
                                   OFFSET 27.56430 0.08536 1.02216
                                   CHANNELS 3 Zrotation Xrotation Yrotation
                                   End Site
                                   {
                                        OFFSET 16.74430 -0.60000 1.50291
                                   }
                              }
                         }
                    }
               }
               JOINT RightShoulder
               {
                    OFFSET -8.99000 -0.36225 -0.22000
                    CHANNELS 3 Zrotation Xrotation Yrotation
                    JOINT RightArm
                    {
                         OFFSET -10.28270 -0.00338 0.32212
                         CHANNELS 3 Zrotation Xrotation Yrotation
                         JOINT RightForeArm
                         {
                              OFFSET -32.89710 0.09914 -1.42434
                              CHANNELS 3 Zrotation Xrotation Yrotation
                              JOINT RightHand
                              {
                                   OFFSET -27.49210 0.08536 1.02216
                                   CHANNELS 3 Zrotation Xrotation Yrotation
                                   End Site
                                   {
                                        OFFSET -16.63120 -0.60000 1.50291
                                   }
                              }
                         }
                    }
               }
          }
     }
     JOINT LeftUpLeg
     {
          OFFSET 8.94580 -8.66707 0.10165
          CHANNELS 3 Zrotation Xrotation Yrotation
          JOINT LeftLeg
          {
               OFFSET 0.00000 -44.42270 1.37270
               CHANNELS 3 Zrotation Xrotation Yrotation
               JOINT LeftFoot
               {
                    OFFSET -0.25355 -42.09240 -1.46059
                    CHANNELS 3 Zrotation Xrotation Yrotation
                    JOINT LeftToes
                    {
                         OFFSET -0.04000 -4.41509 8.49910
                         CHANNELS 3 Zrotation Xrotation Yrotation
                         End Site
                         {
                              OFFSET 0.08000 -0.04745 9.77979
                         }
                    }
               }
          }
     }
     JOINT RightUpLeg
     {
          OFFSET -8.94580 -8.66707 0.10165
          CHANNELS 3 Zrotation Xrotation Yrotation
          JOINT RightLeg
          {
               OFFSET 0.00000 -44.42270 1.37270
               CHANNELS 3 Zrotation Xrotation Yrotation
               JOINT RightFoot
               {
                    OFFSET 0.25355 -42.09240 -1.46059
                    CHANNELS 3 Zrotation Xrotation Yrotation
                    JOINT RightToes
                    {
                         OFFSET 0.04000 -4.41509 8.49910
                         CHANNELS 3 Zrotation Xrotation Yrotation
                         End Site
                         {
                              OFFSET -0.08000 -0.13745 9.77979
                         }
                    }
               }
          }
     }
}
MOTION
Frames: 15
Frame Time: 0.01667
-55.04250 94.59180 -46.27930 14.11780 -13.41450 52.86980 -2.50109 15.34090 1.85457 -9.57960 30.61820 6.05904 -2.43224 13.80290 14.25670 -0.00000 0.00000 -0.00000 176.18700 -19.75320 -128.33600 -135.48399 24.57400 0.38300 8.92657 7.29884 -31.15490 7.17368 2.60476 21.05940 101.93400 2.62804 67.37160 11.89270 21.74580 81.41860 19.18780 13.26880 15.07030 21.70000 3.03277 -22.99670 -19.97650 6.11503 54.28200 -14.28500 2.78203 1.27409 10.67160 -1.09493 -55.04290 -32.90690 19.67520 23.38020 38.19310 2.11146 -27.30900 -14.77640 1.63244 1.09540 1.68833 -20.32320 -0.67076 
-55.12240 94.43800 -46.33700 14.08320 -13.73410 51.45050 -2.22511 15.09780 1.19370 -9.02976 30.19770 4.67865 -2.56288 14.06620 16.42850 -0.00000 0.00000 -0.00000 175.21100 -12.79020 -129.46400 -139.42500 21.41420 1.42002 7.31884 7.80847 -31.19260 6.86823 2.59730 21.56760 101.72400 3.60057 66.89650 11.77630 21.26810 80.72850 19.14580 13.30570 15.32110 21.98620 3.35988 -22.89750 -20.38770 6.51437 55.10050 -14.51730 2.52201 1.26424 10.52240 -1.47101 -54.77690 -32.79360 19.37990 23.50330 37.82240 2.23383 -27.40400 -14.94170 0.53068 0.95810 1.67721 -19.90990 -0.08507 
-55.23990 94.29820 -46.37000 14.07030 -14.04270 50.13500 -2.12771 14.91550 0.53969 -8.41654 29.88010 3.18591 -2.97310 14.51450 18.75530 -0.00000 0.00000 -0.00000 175.49600 -6.22032 -130.22800 -142.90500 19.36760 1.86334 5.17047 8.51491 -30.62750 6.63695 2.61934 22.23020 101.69100 4.24077 66.31310 11.74360 21.12920 80.34730 19.37810 13.35040 15.34530 22.34620 3.75951 -22.75930 -20.82750 6.64615 55.91970 -14.39720 2.60721 1.26359 10.27360 -2.41652 -54.74490 -32.72070 19.30500 23.67840 37.47900 1.96927 -27.55960 -15.40700 -0.40782 0.85944 1.68027 -19.71180 0.50771 
-55.38820 94.18130 -46.38730 14.07410 -14.34220 48.94780 -2.19896 14.79030 -0.06752 -7.73094 29.65500 1.65299 -3.64954 15.16020 21.11790 -0.00000 0.00000 -0.00000 176.86700 -0.44621 -130.95000 -145.86099 18.55610 1.84252 2.83445 9.26224 -29.60580 6.53248 2.67432 22.96440 101.75800 4.50711 65.61250 11.80660 21.25260 80.20870 19.79750 13.39720 15.20080 22.74960 4.21857 -22.60490 -21.24880 6.54162 56.70880 -14.01450 2.96966 1.27086 9.97058 -3.70533 -54.91130 -32.73070 19.46040 23.91200 37.19420 1.27731 -27.66460 -16.12830 -1.08666 0.80578 1.69968 -19.70320 1.13969 
-55.56290 94.09220 -46.39700 14.09230 -14.61600 47.89770 -2.43817 14.71600 -0.57858 -6.99582 29.50660 0.17852 -4.53191 15.99890 23.39080 -0.00000 0.00000 -0.00000 178.98199 4.25838 -131.75900 -148.27200 18.71090 1.53827 0.60996 9.92983 -28.41860 6.58059 2.75938 23.66500 101.85400 4.40451 64.81750 11.94070 21.53990 80.23560 20.28020 13.44030 14.98320 23.14750 4.71804 -22.42830 -21.60250 6.24570 57.40060 -13.49480 3.51121 1.28237 9.67019 -5.03520 -55.19460 -32.86550 19.81880 24.19580 36.99030 0.17599 -27.61580 -17.02990 -1.45591 0.80122 1.73663 -19.85570 1.83009 
-55.75550 94.03060 -46.40890 14.11860 -14.84540 46.97670 -2.81817 14.68180 -0.95656 -6.25264 29.41440 -1.13439 -5.52902 16.99230 25.45770 -0.00000 0.00000 -0.00000 -178.64799 7.78994 -132.57500 -150.15700 19.26170 1.14347 -1.32333 10.46810 -27.34310 6.77064 2.86479 24.23840 101.92300 3.98431 63.98060 12.11010 21.88420 80.33850 20.67610 13.47550 14.81080 23.49220 5.22366 -22.21690 -21.85900 5.83594 57.91330 -12.99360 4.09651 1.29556 9.43771 -6.07467 -55.47110 -33.14440 20.32770 24.51510 36.87390 -1.26902 -27.34340 -18.00540 -1.52063 0.84488 1.78771 -20.10620 2.57286 
-56.01500 93.98810 -46.40230 14.25800 -14.88140 46.13140 -3.73121 14.69470 -1.03925 -5.63680 29.36510 -2.19456 -6.53733 18.04720 27.20310 -0.00000 0.00000 -0.00000 -176.58400 10.22280 -133.19299 -151.58000 19.56020 0.83263 -2.87028 10.87290 -26.55080 7.06445 2.97719 24.63240 101.92800 3.33130 63.16930 12.30530 22.18270 80.41150 20.83330 13.49990 14.79860 23.63290 5.80534 -21.96330 -22.00640 5.14437 58.20190 -12.57320 4.67246 1.31146 9.33011 -6.54904 -55.60170 -33.53550 20.49470 24.70540 36.81490 -2.11981 -27.03850 -18.75840 -1.71669 0.85286 1.84118 -20.34010 3.33411 
-56.25160 93.91410 -46.42830 14.33020 -14.90530 45.38340 -4.47067 14.70530 -1.03414 -5.04575 29.32250 -2.96739 -7.45432 19.01040 28.49320 -0.00000 0.00000 -0.00000 -175.32500 11.74790 -133.40900 -152.62399 19.11350 0.72802 -3.96825 11.15220 -26.12020 7.41200 3.08364 24.84170 101.84400 2.54609 62.44550 12.55980 22.34900 80.34570 20.63710 13.50910 15.02370 23.67750 6.08611 -21.66750 -22.10110 4.95885 58.23000 -12.64960 4.86744 1.34000 9.36735 -6.33546 -55.46780 -33.83390 20.50090 24.75140 36.75390 -2.64121 -26.61700 -19.24440 -1.96167 0.83581 1.87642 -20.40650 4.05342 
-56.40670 93.82090 -46.51860 14.22110 -15.01500 44.76550 -4.59282 14.68640 -1.10133 -4.49331 29.26130 -3.45192 -8.18661 19.69900 29.18340 -0.00000 0.00000 -0.00000 -175.16299 12.56580 -133.13800 -153.34200 17.72880 0.87138 -4.56912 11.31100 -26.08160 7.76313 3.17332 24.88940 101.66100 1.72931 61.84960 12.92860 22.32700 80.06760 20.05780 13.49640 15.49540 23.75110 5.96541 -21.38330 -22.18740 5.44469 57.99870 -13.32330 4.52748 1.37704 9.51087 -5.52722 -55.01010 -33.90360 20.49020 24.65950 36.64460 -3.05621 -26.07650 -19.47250 -2.21779 0.80194 1.86943 -20.16540 4.64958 
-56.55690 93.77030 -46.63530 14.08520 -15.02470 44.26010 -4.65293 14.65280 -1.09390 -4.06655 29.17570 -3.67922 -8.66059 19.96300 29.17180 -0.00000 0.00000 -0.00000 -176.08299 12.80270 -132.46800 -153.72600 15.53900 1.22091 -4.65979 11.35280 -26.43670 8.07304 3.23701 24.80090 101.39300 0.96617 61.39680 13.44190 22.10370 79.58490 19.18120 13.45700 16.14470 23.79160 5.81086 -21.20330 -22.27740 5.74399 57.61460 -14.22430 3.88871 1.39878 9.67055 -4.43575 -54.25870 -33.85140 20.26590 24.42800 36.44770 -3.06963 -25.61020 -19.42950 -2.67976 0.71773 1.80445 -19.54670 5.04039 
-56.68340 93.74080 -46.78640 13.91990 -14.94790 43.89630 -4.55241 14.59560 -1.07452 -3.75600 29.05410 -3.71329 -8.83847 19.74710 28.46650 -0.00000 0.00000 -0.00000 -177.79100 12.50170 -131.63000 -153.72701 12.91240 1.68149 -4.29704 11.28770 -27.14750 8.30916 3.26748 24.58900 101.07900 0.30890 61.08890 14.06710 21.72440 79.00300 18.18800 13.39360 16.83790 23.79870 5.52721 -21.15110 -22.43570 6.03905 57.25400 -15.34760 2.91951 1.38985 9.74280 -3.51947 -53.34570 -33.74960 20.02730 24.15830 36.16890 -3.08326 -25.20010 -19.24260 -3.19613 0.61834 1.68426 -18.58130 5.17308 
-56.81380 93.73200 -46.96180 13.76480 -14.74950 43.68150 -4.44490 14.51810 -1.02364 -3.56182 28.89680 -3.62238 -8.72863 19.11330 27.20960 -0.00000 0.00000 -0.00000 -179.83800 11.67180 -130.91299 -153.30901 10.29800 2.14731 -3.61848 11.13910 -28.12050 8.46303 3.26276 24.25680 100.77200 -0.23821 60.92910 14.71140 21.29730 78.49210 17.28220 13.31680 17.41550 23.76660 5.14386 -21.24570 -22.71840 6.23747 57.15240 -16.52880 1.77116 1.34214 9.65689 -3.23658 -52.47270 -33.64130 19.75750 23.87020 35.82670 -3.09537 -24.91330 -18.97150 -3.76007 0.50933 1.52896 -17.37790 5.04559 
-56.95030 93.72950 -47.16320 13.63090 -14.44570 43.61580 -4.36900 14.42420 -0.95057 -3.46622 28.70900 -3.46331 -8.37939 18.21030 25.62710 -0.00000 0.00000 -0.00000 178.19600 10.33280 -130.54300 -152.47800 8.08381 2.53346 -2.79978 10.94110 -29.21390 8.56114 3.22946 23.80590 100.49700 -0.71786 60.93000 15.26910 20.96930 78.21830 16.60940 13.23950 17.75000 23.68800 4.61134 -21.45230 -23.18440 6.49312 57.52100 -17.66800 0.58321 1.26157 9.39693 -3.86758 -51.83260 -33.47140 19.29530 23.50530 35.44340 -2.73725 -24.85480 -18.56120 -4.51244 0.36667 1.36289 -16.05400 4.70366 
-57.10940 93.71350 -47.38490 13.54870 -14.03660 43.67070 -4.47480 14.32550 -0.81652 -3.46336 28.50490 -3.26840 -7.86330 17.20930 23.93650 -0.00000 0.00000 -0.00000 176.58000 8.51749 -130.62601 -151.28400 6.53746 2.78748 -1.97160 10.72270 -30.27270 8.66243 3.18176 23.24030 100.23600 -1.19842 61.10660 15.68060 20.87470 78.28360 16.21490 13.17010 17.79870 23.51750 3.90119 -21.68610 -23.86350 6.97466 58.47140 -18.67770 -0.46301 1.17117 8.99195 -5.39989 -51.52950 -33.27000 18.55970 23.07600 35.05470 -1.85842 -25.04360 -17.99020 -5.49329 0.18807 1.20230 -14.67940 4.21754 
-57.28100 93.71340 -47.63190 13.49610 -13.57630 43.82130 -4.74637 14.22780 -0.63345 -3.53113 28.29800 -3.04693 -7.26588 16.24250 22.27530 -0.00000 0.00000 -0.00000 175.42999 6.24617 -131.14900 -149.79601 5.82632 2.88246 -1.16124 10.49070 -31.17610 8.83795 3.13544 22.56400 99.92540 -1.74453 61.46480 15.96000 21.08900 78.70490 16.05240 13.11150 17.61790 23.29620 3.12306 -21.87690 -24.72150 7.60142 59.92640 -19.38870 -1.13544 1.10675 8.49584 -7.56062 -51.57140 -33.15030 17.85070 22.73640 34.70370 -1.10732 -25.29240 -17.40090 -6.38021 0.03415 1.05425 -13.28020 3.65669 
